<svg width="260" height="54" viewBox="0 0 260 54" fill="none" xmlns="http://www.w3.org/2000/svg">
<path d="M71.064 41H61.56L50.516 11.652H59.096L66.312 32.816L73.572 11.652H82.152L71.064 41ZM81.9643 26.348C81.9643 17.416 88.6963 11.168 97.6723 11.168C106.648 11.168 113.336 17.416 113.336 26.348C113.336 35.28 106.648 41.528 97.6723 41.528C88.6963 41.528 81.9643 35.28 81.9643 26.348ZM105.636 26.348C105.636 21.552 102.512 17.856 97.6723 17.856C92.7883 17.856 89.6643 21.552 89.6643 26.348C89.6643 31.1 92.7883 34.84 97.6723 34.84C102.512 34.84 105.636 31.1 105.636 26.348ZM131.316 41.528C122.516 41.528 115.652 35.368 115.652 26.348C115.652 17.284 122.516 11.168 131.316 11.168C138.62 11.168 142.404 15.172 144.34 19.044L137.828 22.124C136.86 19.792 134.352 17.856 131.316 17.856C126.74 17.856 123.352 21.552 123.352 26.348C123.352 31.144 126.74 34.84 131.316 34.84C134.352 34.84 136.86 32.904 137.828 30.572L144.34 33.652C142.448 37.436 138.62 41.528 131.316 41.528ZM175.781 41H167.553L166.057 36.556H153.869L152.373 41H144.145L155.189 11.652H164.693L175.781 41ZM164.077 30.176L159.941 18.252L155.849 30.176H164.077ZM195.109 41H177.949V11.652H194.581C200.389 11.652 203.161 15.436 203.161 19.132C203.161 22.784 200.917 25.248 198.145 25.864C201.269 26.348 203.733 29.34 203.733 33.036C203.733 37.304 200.873 41 195.109 41ZM185.517 17.944V23.004H192.865C194.405 23.004 195.461 21.904 195.461 20.452C195.461 19 194.405 17.944 192.865 17.944H185.517ZM185.517 29.252V34.708H193.129C194.933 34.708 196.033 33.608 196.033 32.024C196.033 30.528 194.977 29.252 193.129 29.252H185.517ZM247.625 41H239.397L237.901 36.556H225.713L224.217 41H215.989L227.033 11.652H236.537L247.625 41ZM235.921 30.176L231.785 18.252L227.693 30.176H235.921ZM257.36 41H249.792V11.652H257.36V41Z" fill="black"/>
<path fill-rule="evenodd" clip-rule="evenodd" d="M2.03888 16.7252C1.51381 16.5311 0.968179 16.3784 0.405878 16.271C0.364594 16.2631 0.323222 16.2555 0.281755 16.2481C-0.0939184 16.181 -0.0939184 15.6422 0.281755 15.5751C0.323222 15.5677 0.364594 15.5601 0.405878 15.5522C0.968179 15.4448 1.51381 15.2921 2.03888 15.098C2.35311 14.9818 2.65997 14.8509 2.95863 14.7058C5.0269 13.7019 6.70189 12.0269 7.7059 9.95863C7.85085 9.65997 7.98186 9.35312 8.09798 9.03888C8.29209 8.51381 8.44479 7.96818 8.55222 7.40588C8.56008 7.36459 8.56772 7.32322 8.57514 7.28176C8.64216 6.90608 9.18103 6.90608 9.24806 7.28176C9.25547 7.32322 9.26311 7.36459 9.27097 7.40588C9.3784 7.96818 9.5311 8.51381 9.72521 9.03888C9.84138 9.35311 9.97234 9.65997 10.1173 9.95863C11.1213 12.0269 12.7963 13.7019 14.8646 14.7058C15.1632 14.8509 15.4701 14.9818 15.7843 15.098C16.3094 15.2921 16.855 15.4448 17.4173 15.5522C17.4586 15.5601 17.5 15.5677 17.5414 15.5751C17.9171 15.6422 17.9171 16.181 17.5414 16.2481C17.5 16.2555 17.4586 16.2631 17.4173 16.271C16.855 16.3784 16.3094 16.5311 15.7843 16.7252C15.4701 16.8414 15.1632 16.9723 14.8646 17.1174C12.7963 18.1213 11.1213 19.7963 10.1173 21.8646C9.97234 22.1633 9.84138 22.4701 9.72521 22.7843C9.5311 23.3094 9.3784 23.855 9.27097 24.4173C9.26311 24.4586 9.25547 24.5 9.24806 24.5414C9.18103 24.9171 8.64216 24.9171 8.57514 24.5414C8.56772 24.5 8.56008 24.4586 8.55222 24.4173C8.44479 23.855 8.29209 23.3094 8.09798 22.7843C7.98186 22.4701 7.85085 22.1633 7.7059 21.8646C6.70189 19.7963 5.0269 18.1213 2.95863 17.1174C2.65997 16.9723 2.35311 16.8414 2.03888 16.7252ZM14.5921 30.0745C14.2249 29.9755 13.8526 29.8887 13.4755 29.8144C13.4166 29.8029 13.3576 29.7916 13.2985 29.7806L13.2805 29.7772L13.2563 29.7728C13.219 29.766 13.178 29.7587 13.0961 29.744L13.0675 29.7389C12.4667 29.6252 12.4667 28.7649 13.0675 28.6512L13.0961 28.6461C13.178 28.6315 13.219 28.6242 13.2563 28.6174L13.2805 28.6129L13.2985 28.6096C13.3576 28.5986 13.4166 28.5873 13.4755 28.5757C13.8525 28.5015 14.2249 28.4146 14.5921 28.3157C14.9058 28.2311 15.2157 28.1377 15.5217 28.0358C20.4718 26.3857 24.367 22.4905 26.0171 17.5404C26.119 17.2344 26.2124 16.9245 26.297 16.6108C26.3959 16.2436 26.4828 15.8712 26.557 15.4942C26.5686 15.4353 26.5799 15.3763 26.5909 15.3172L26.5942 15.2992L26.5987 15.275C26.6054 15.2381 26.6127 15.1977 26.6269 15.1176L26.6274 15.1148L26.6325 15.0862C26.7462 14.4854 27.6065 14.4854 27.7202 15.0862L27.7254 15.1148C27.74 15.1967 27.7473 15.2377 27.7541 15.275L27.7585 15.2992L27.7619 15.3172C27.7729 15.3763 27.7842 15.4353 27.7957 15.4942C27.87 15.8713 27.9568 16.2436 28.0558 16.6108C28.1403 16.9245 28.2338 17.2344 28.3357 17.5404C29.9858 22.4905 33.881 26.3857 38.8311 28.0358C39.1371 28.1377 39.447 28.2311 39.7607 28.3157C40.1279 28.4146 40.5003 28.5015 40.8773 28.5757C40.9362 28.5873 40.9952 28.5986 41.0543 28.6096L41.0722 28.6129L41.0965 28.6174C41.1338 28.6242 41.1747 28.6315 41.2567 28.6461L41.2853 28.6512C41.8861 28.7649 41.8861 29.6252 41.2853 29.7389L41.2567 29.744L41.17 29.7595L41.0965 29.7728L41.0722 29.7772L41.0543 29.7806C40.9952 29.7916 40.9362 29.8029 40.8773 29.8144C40.5003 29.8887 40.1279 29.9755 39.7607 30.0745C39.447 30.159 39.1371 30.2524 38.8311 30.3544C33.881 32.0045 29.9858 35.8997 28.3357 40.8498C28.2338 41.1558 28.1403 41.4657 28.0558 41.7794C27.9568 42.1466 27.87 42.519 27.7957 42.896C27.7842 42.9549 27.7729 43.0139 27.7619 43.073L27.7585 43.0909L27.7541 43.1152L27.7442 43.1698L27.7259 43.2722L27.7202 43.304C27.6065 43.9048 26.7462 43.9048 26.6325 43.304L26.6274 43.2754C26.6128 43.1936 26.6055 43.1524 26.5987 43.1152L26.5942 43.0909L26.5909 43.073C26.5799 43.0139 26.5686 42.9549 26.557 42.896C26.4828 42.5189 26.3959 42.1466 26.297 41.7794C26.2124 41.4657 26.119 41.1558 26.0171 40.8498C24.367 35.8997 20.4718 32.0045 15.5217 30.3544C15.2157 30.2524 14.9058 30.159 14.5921 30.0745ZM6.30698 41.5986C6.93845 41.7192 7.53659 41.9303 8.08763 42.2179C8.33277 42.3459 8.56855 42.489 8.79376 42.646C9.42135 43.0836 9.96702 43.6293 10.4046 44.2568C10.5616 44.4821 10.7048 44.7179 10.8327 44.963C11.1204 45.514 11.3314 46.1122 11.452 46.7437C11.457 46.7697 11.4619 46.7959 11.4665 46.822C11.5088 47.0593 11.8492 47.0593 11.8915 46.822C11.8962 46.7959 11.901 46.7697 11.906 46.7437C12.0266 46.1122 12.2377 45.514 12.5253 44.963C12.6533 44.7179 12.7964 44.4821 12.9534 44.2568C13.391 43.6293 13.9367 43.0836 14.5643 42.646C14.7895 42.489 15.0253 42.3459 15.2703 42.2179C15.8214 41.9303 16.4196 41.7192 17.0511 41.5986C17.0771 41.5936 17.1032 41.5888 17.1294 41.5841C17.3667 41.5418 17.3667 41.2014 17.1294 41.1591C17.1032 41.1544 17.0771 41.1496 17.0511 41.1446C16.4196 41.024 15.8214 40.8129 15.2703 40.5253C15.0253 40.3973 14.7895 40.2542 14.5643 40.0972C13.9367 39.6596 13.391 39.1139 12.9534 38.4864C12.7964 38.2611 12.6533 38.0253 12.5253 37.7803C12.2377 37.2292 12.0266 36.631 11.906 35.9995C11.901 35.9735 11.8962 35.9474 11.8915 35.9212C11.8492 35.6839 11.5088 35.6839 11.4665 35.9212C11.4619 35.9474 11.457 35.9735 11.452 35.9995C11.3314 36.631 11.1204 37.2292 10.8327 37.7803C10.7048 38.0253 10.5616 38.2611 10.4046 38.4864C9.96702 39.1139 9.42135 39.6596 8.79376 40.0972C8.56855 40.2542 8.33277 40.3973 8.08763 40.5253C7.53659 40.8129 6.93845 41.024 6.30698 41.1446C6.28091 41.1496 6.25479 41.1544 6.22855 41.1591C5.99133 41.2014 5.99133 41.5418 6.22855 41.5841C6.25479 41.5888 6.28091 41.5936 6.30698 41.5986Z" fill="black"/>
</svg>
